<svg width="72" height="72" viewBox="0 0 72 72" fill="none" xmlns="http://www.w3.org/2000/svg">
<path fill-rule="evenodd" clip-rule="evenodd" d="M36 15.27C39.27 11.43 44.28 9 49.5 9C58.74 9 66 16.26 66 25.5C66 36.8307 55.8167 46.0648 40.388 60.0555L40.35 60.09L36 64.05L31.65 60.12L31.5316 60.0124C16.1479 46.0327 6 36.811 6 25.5C6 16.26 13.26 9 22.5 9C27.72 9 32.73 11.43 36 15.27ZM36 55.95L36.3 55.65C50.58 42.72 60 34.17 60 25.5C60 19.5 55.5 15 49.5 15C44.88 15 40.38 17.97 38.82 22.08H33.21C31.62 17.97 27.12 15 22.5 15C16.5 15 12 19.5 12 25.5C12 34.17 21.42 42.72 35.7 55.65L36 55.95Z" fill="#FD5545"/>
</svg>
