<svg width="72" height="72" viewBox="0 0 72 72" fill="none" xmlns="http://www.w3.org/2000/svg">
<path d="M49.4418 6C58.5723 6 66.0004 13.428 66 22.5578V49.4422C66 58.572 58.5723 66 49.4418 66H22.5575C13.4277 66 6 58.5723 6 49.4422V22.5578C6 13.428 13.4277 6 22.5575 6H49.4418ZM60.6769 49.4422H60.6765V22.5578C60.6765 16.3634 55.6366 11.3235 49.4418 11.3235H22.5575C16.3631 11.3235 11.3235 16.3634 11.3235 22.5578V49.4422C11.3235 55.6369 16.3631 60.6769 22.5575 60.6765H49.4422C55.6369 60.6765 60.6769 55.6369 60.6769 49.4422ZM36 21C44.2711 21 51 27.729 51 36.0003C51 44.2713 44.2711 51 36 51C27.7289 51 21 44.2713 21 36.0003C21 27.729 27.7289 21 36 21ZM36 45.8346C41.4228 45.8346 45.8351 41.423 45.8351 36C45.8351 30.5767 41.4232 26.1647 36 26.1647C30.5768 26.1647 26.1649 30.5767 26.1649 36C26.1649 41.423 30.5772 45.8346 36 45.8346ZM52.25 16C53.2386 16 54.2068 16.3989 54.9023 17.0977C55.6011 17.7932 56 18.7614 56 19.75C56 20.7352 55.6011 21.7034 54.9023 22.4023C54.2034 23.0977 53.2386 23.5 52.25 23.5C51.2648 23.5 50.2966 23.0977 49.6011 22.4023C48.9023 21.7034 48.5 20.7356 48.5 19.75C48.5 18.7614 48.9019 17.7932 49.6011 17.0977C50.2969 16.3989 51.2648 16 52.25 16Z" fill="#FD5545"/>
</svg>
